<svg id="Layer_1" data-name="Layer 1" xmlns="http://www.w3.org/2000/svg" viewBox="0 0 950 450"><defs><style>.cls-1{fill:#d9e9cd;}.cls-2{fill:#e5eaf7;}.cls-3{fill:#ddddeb;}.cls-4{fill:#fdf0e4;}.cls-5{fill:#7098d0;}.cls-6{fill:#fff;}.cls-7{fill:#7676b6;}.cls-8{fill:#f6ac86;}.cls-9{fill:#9cc487;}</style></defs><title>ExpensesNew</title><rect class="cls-1" width="472" height="222"/><rect class="cls-2" x="478" width="472" height="222"/><rect class="cls-3" y="228" width="472" height="222"/><rect class="cls-4" x="478" y="228" width="472" height="222"/><path class="cls-5" d="M751.06,57.86c-.14-.14-.14-.14-.29-.14h0c-.43-.14-.57-.28-.86-.14a1.62,1.62,0,0,0-1.15.43,12,12,0,0,0-1,1.43,3,3,0,0,0-.43.72l-.43.86a1.23,1.23,0,0,0-.43.86h0a30,30,0,0,0-2.72,8.58v.29h0c-.14,0-.14.14-.14.43A55.85,55.85,0,0,0,743.2,81c0,3.29.29,6.58.57,10,.29,3,.72,5.86,1,8.87l.57,3.29a306.25,306.25,0,0,1,.14,47.2,7.56,7.56,0,0,0-.14,1.72c-.29,2.43-.57,4.72-.71,7v1.14a4.94,4.94,0,0,0,1.43,2.86,5.46,5.46,0,0,0,3.58,1.43,5.12,5.12,0,0,0,5.15-3.29,6.42,6.42,0,0,0,.14-1.86V159c-.86-5-1.29-9.87-1.71-14.87s-.72-10-.86-15a5.85,5.85,0,0,1-.14-1.57v-2.57a18.38,18.38,0,0,1-.14-2.72V120.5l.29-16.87c.14-2.58.14-6,.14-10.16-.14-3.72-.14-7,0-10.16s.14-6,.14-9V72.45a18.41,18.41,0,0,1-.14-2.86c0-2,0-3.86-.14-5.58s-.29-3-.43-3.86A12.94,12.94,0,0,0,751.06,57.86Z"/><path class="cls-5" d="M731.18,91.18a40.26,40.26,0,0,0-54.35-1.71A22.41,22.41,0,0,0,675,91.18a38.11,38.11,0,0,0-11.58,28A38.42,38.42,0,0,0,675,147.39a50.84,50.84,0,0,0,6.15,5.15,38.67,38.67,0,0,0,22,6.43c11,0,20.31-3.72,28-11.58a39.53,39.53,0,0,0,0-56.21Z"/><path class="cls-6" d="M724.18,98a30,30,0,0,1,0,42.34,29.33,29.33,0,0,1-21,8.86,30.21,30.21,0,0,1-16.59-5,38.81,38.81,0,0,1-4.58-3.86A30,30,0,0,1,682,98a5.56,5.56,0,0,1,1.43-1.14,28,28,0,0,1,19.74-7.44A29.06,29.06,0,0,1,724.18,98Z"/><path class="cls-5" d="M729.18,119.22a25.89,25.89,0,0,0-26-25.89,24.68,24.68,0,0,0-12.87,3.29,21,21,0,0,0-5.44,4.29,24.51,24.51,0,0,0-7.58,18.31,24.82,24.82,0,0,0,7.58,18.45,26.81,26.81,0,0,0,8.73,5.86,26,26,0,0,0,9.58,1.71,25.88,25.88,0,0,0,26-26Z"/><path class="cls-5" d="M662.82,74c-.29-1.71-.57-4.43-1.14-8.29s-1-6.43-1.15-7.58a1.12,1.12,0,0,1-.14-.43h-1a34.28,34.28,0,0,0-.14,4.44v2.71a37.81,37.81,0,0,0,.14,4V73.3a9.43,9.43,0,0,0,.14,2.15v1.29a2,2,0,0,0-.29.43h0a4.31,4.31,0,0,1-.43-1.72,47.16,47.16,0,0,1-.71-7.72A7.51,7.51,0,0,1,658,66a14.61,14.61,0,0,0-.14-2.43c-.14-1.86-.29-3.43-.43-4.72a3.51,3.51,0,0,1-.14-1.14h-.86v.72a9.42,9.42,0,0,0-.14,2.15c-.14.86-.14,1.86-.29,2.72V66a8.11,8.11,0,0,0-.14,1.86v3.58a15.59,15.59,0,0,1-.14,2.57v1.43l-.14,1.29h-.14c0-.28-.14-.86-.14-1.29V74.16a15.46,15.46,0,0,1-.14-2.57c-.14-1.86-.28-4.86-.43-9.15-.14-1.86-.29-3.43-.29-4.72h-.86c0,.86-.29,2.57-.43,4.86q-.43,5.79-.86,9.87c-.14,1.14-.14,2.15-.29,3v1.72h-.57V75.45a5.39,5.39,0,0,1,.14-1.57,3.5,3.5,0,0,1,0-1.71V57.72h-1c-.29,1.72-.57,3.72-.86,5.87-.86,5.29-1.29,8.87-1.57,10.72-.29,1.57-.29,3.43-.43,5.29s.14,3.57.29,5.44a3.91,3.91,0,0,0,1,1.86h.14l.57.57A8.43,8.43,0,0,1,651.52,90a3.1,3.1,0,0,0,.43.72,23.49,23.49,0,0,1,1,2.86,8.75,8.75,0,0,0,.14,1.86v6.29a33.33,33.33,0,0,1-.14,3.72v8.44c-.14,1.43-.14,3-.14,4.43a21.28,21.28,0,0,1-.14,3,20,20,0,0,1-.14,2.86,18.36,18.36,0,0,0-.14,2.86c-.14,1-.14,1.86-.29,2.86a20,20,0,0,1-.14,2.86c0,.86-.14,1.72-.14,2.72a11.12,11.12,0,0,0-.29,2.15v1l-.72,5.58c-.14.72-.14,1.29-.28,1.86-.14,1.43-.29,2.57-.43,4a12,12,0,0,1-.28,1.86c-.14,1.43-.29,3-.57,4.58a13.37,13.37,0,0,0-.29,3.29c-.14.29,0,.43,0,.72.86,2.43,2.57,3.72,5.43,3.86a5.31,5.31,0,0,0,5.58-3.57,5.88,5.88,0,0,0,0-2.29c-.14-1.29-.43-3-.72-5.15a47,47,0,0,1-.43-5.72c-.14-1.43-.14-2.43-.29-3l-.57-5.58v-1a10.78,10.78,0,0,1-.14-2.15,19.25,19.25,0,0,1-.14-2.86,5.85,5.85,0,0,1-.14-1.57,3.17,3.17,0,0,0-.14-1.14v-2.86a19,19,0,0,1-.14-2.86,22.32,22.32,0,0,1-.14-3V97a1.56,1.56,0,0,1,.14-.71v-.86c0-.43.14-.86.14-1.14a5.31,5.31,0,0,1,.72-2,16,16,0,0,1,.71-1.57,20.54,20.54,0,0,1,2.57-3.57,8.18,8.18,0,0,0,1-1.15,3.73,3.73,0,0,0,.43-1.14.87.87,0,0,0,.14-.57h0c.14-1.72.29-3.29.29-4.86C663.11,77.6,663,75.88,662.82,74Z"/><path class="cls-5" d="M778.24,71.45a14.11,14.11,0,0,0-3.86-5.3c-.29-.14-.57-.43-.86-.57,0-.14,0-.14-.14-.14h0a6.61,6.61,0,0,0-3.58-1.14h-.72c-.57,0-1,.14-1.43.14a10.54,10.54,0,0,0-3.72,2,11.34,11.34,0,0,0-3.58,4.43A20.66,20.66,0,0,0,758.5,76a19.65,19.65,0,0,0-.43,3.72,35.56,35.56,0,0,0,.14,6.72,10.78,10.78,0,0,0,.57,2,10.35,10.35,0,0,0,2,3.43c1.43,1.72,3,3.43,4.58,5a3.34,3.34,0,0,1,1,1.57,2.08,2.08,0,0,1,.28,1,54.55,54.55,0,0,1,.29,8.44,10.09,10.09,0,0,0-.14,2v4.43a21,21,0,0,0-.14,3v4.29a15.68,15.68,0,0,0-.14,2.57,17.42,17.42,0,0,0-.14,2.72c-.14.86-.14,1.86-.29,2.72a16.33,16.33,0,0,1-.14,2.72,14,14,0,0,1-.14,2.43c0,.86-.14,1.86-.14,2.72a7.49,7.49,0,0,0-.14,1.86v.86l-.72,5.29a7.13,7.13,0,0,1-.29,1.71c-.14,1.29-.29,2.43-.43,3.58,0,.57-.14,1.14-.14,1.71-.29,1.43-.43,2.86-.72,4.29a23,23,0,0,0-.14,3.15c-.14.28,0,.43,0,.57a5.11,5.11,0,0,0,5,3.57,4.83,4.83,0,0,0,5.15-3.15,6,6,0,0,0,0-2.29c-.14-1-.43-2.57-.57-4.72s-.43-3.86-.57-5.29a25.11,25.11,0,0,1-.14-2.72l-.57-5.29v-2.86a17.44,17.44,0,0,1-.29-2.72,4.4,4.4,0,0,1-.14-1.43v-1c0-.86-.14-1.86-.14-2.72v-2.57a18.38,18.38,0,0,1-.14-2.72v-2.86a37.2,37.2,0,0,1-.14-4v-3.15c0-1.58,0-3.15.14-4.72v-3.15a6.87,6.87,0,0,0-.14-1.71,11.68,11.68,0,0,1,.86-6.3,2.86,2.86,0,0,1,1-1.29c.29-.43.72-.72,1-1.14h.14a16.31,16.31,0,0,0,5.15-6.15A10.16,10.16,0,0,0,779.1,89h.14v-.28a19.48,19.48,0,0,0,1.14-5.86,26.24,26.24,0,0,1-.14-3.43,14,14,0,0,0-.43-3.43A34.2,34.2,0,0,0,778.24,71.45Z"/><path class="cls-7" d="M240.94,304.8a107,107,0,0,0-14.08-1.61c-2.21-.2-4.63-.4-6.84-.4a99,99,0,0,0-20.52,2.61C192.66,307,185.83,309,179,311.24a154.91,154.91,0,0,0-25.75,11.87,84.74,84.74,0,0,0-13.08,2.21c-4.22,3-6.23,10.87-6.84,23.54-2,8.65,6,13.08,23.74,13.08a7.52,7.52,0,0,1-.2-2.21,19.3,19.3,0,0,1,6-14.28,19.58,19.58,0,0,1,14.28-5.84,19.15,19.15,0,0,1,7,1.21,20.13,20.13,0,0,1,7.24,4.63,19.9,19.9,0,0,1,5.84,14.28,27.54,27.54,0,0,1-.4,4l80.06-.2a32.84,32.84,0,0,1-.4-4.63,19.93,19.93,0,0,1,20.12-20.32,21.05,21.05,0,0,1,7.24,1.21,19.42,19.42,0,0,1,7,4.63,20,20,0,0,1,5.83,14.48,14.49,14.49,0,0,1-.4,4.23h17.3q3.62.6,4.83-3c.2-.4.2-1,.4-1.41a9.73,9.73,0,0,0-.81-5.43,4.07,4.07,0,0,0-2.41-2.41,19.91,19.91,0,0,0-.2-6,12.36,12.36,0,0,0-4-6,82.23,82.23,0,0,0-11.06-5.63,106.27,106.27,0,0,0-28.77-7.44c-16.3-9.86-31.38-16.29-45.66-19.72C244.36,305.61,242.55,305.2,240.94,304.8Z"/><path class="cls-6" d="M218.81,308l.8,16.29L182,323.11c-3-1.81-3.62-3.42-1.81-5.23C188.44,311.64,201.31,308.42,218.81,308Z"/><path class="cls-6" d="M230.48,324.11l-1.41-15.89q3.32.3,8.45,1.21a33.85,33.85,0,0,1,4.42.8c18.91,3.82,29.77,9.25,32.79,16.29Z"/><path class="cls-7" d="M187.64,348.05a15.8,15.8,0,0,0-5.43-3.82,17.76,17.76,0,0,0-5.83-1,15.79,15.79,0,0,0-11.06,27.16c.2.2.4.6.8.8a7.74,7.74,0,0,0,3.42,2.21,15.7,15.7,0,0,0,6.84,1.82,16.53,16.53,0,0,0,10.46-4c.2-.2.4-.61.8-.8a15.78,15.78,0,0,0,0-22.33Z"/><path class="cls-6" d="M179.79,349.86a10.13,10.13,0,0,1,6.44,9.05v.4a9.7,9.7,0,0,1-3,6.64l-.4.4a9.62,9.62,0,0,1-10.66,1.41,21.37,21.37,0,0,1-2.21-1.41l-.4-.4a9.7,9.7,0,0,1-3-6.64v-.4a9,9,0,0,1,3-6.84,8,8,0,0,1,6.84-2.82A9.37,9.37,0,0,1,179.79,349.86Z"/><path class="cls-7" d="M302.3,344.23a16.57,16.57,0,0,0-5.63-1,14.93,14.93,0,0,0-11.27,4.83,15.78,15.78,0,0,0,0,22.33c.2.2.4.6.81.8a9.75,9.75,0,0,0,3.62,2.21,15,15,0,0,0,6.84,1.82,16.52,16.52,0,0,0,10.46-4c.2-.2.4-.61.8-.8a15.78,15.78,0,0,0,0-22.33A14.74,14.74,0,0,0,302.3,344.23Z"/><path class="cls-6" d="M300.09,349.86a10.13,10.13,0,0,1,6.44,9.05v.4a10.65,10.65,0,0,1-3,6.64.43.43,0,0,0-.4.4,9.47,9.47,0,0,1-6.44,2.42,11,11,0,0,1-4.42-1c-.6-.4-1.41-1-2-1.41l-.4-.4a9.71,9.71,0,0,1-3-6.64v-.4a9,9,0,0,1,3-6.84,8,8,0,0,1,6.84-2.82A10.18,10.18,0,0,1,300.09,349.86Z"/><path class="cls-8" d="M784.85,356a15.64,15.64,0,0,0-4-9.49,8.83,8.83,0,0,0-7-3.2h-.71q0-15,0-30.06a6.47,6.47,0,0,0-.51-2.27,33.4,33.4,0,0,0-11.13-14.29c-10-7.74-21.76-10.82-34.06-12.18a124.55,124.55,0,0,0-26.29-.06c-9.1.92-17.94,2.87-26.19,7S660,300.91,656,309.26a13.34,13.34,0,0,0-1.25,5.39c-.13,9.3-.07,18.61-.06,27.91,0,.24,0,.48,0,.73h-.57a8,8,0,0,0-6.53,2.82,24.21,24.21,0,0,0-3.49,5.68c-1.74,4.07-.83,8.43-1.07,12.76h141.8C784.89,361.61,785,358.78,784.85,356Z"/><path class="cls-6" d="M689.4,331.93a22.83,22.83,0,0,1-.52-11.46,2.4,2.4,0,0,0-.54-1.76c-1.21-1.45-1.4-2.83-.35-3.88s2.43-.86,3.89.36a2.68,2.68,0,0,0,1.71.74,60,60,0,0,1,16.85.67,11.1,11.1,0,0,0,3.55.27,84,84,0,0,1,19.37-.93,3.38,3.38,0,0,0,3.07-1,2.41,2.41,0,0,1,3.61-.11c1,1,.89,2.25-.09,3.52a3.58,3.58,0,0,0-.69,1.63c-.55,4.13-1.05,8.27-1.55,12.4a3.71,3.71,0,0,0,.07,1.37c.85,3.16,1.73,6.31,2.62,9.51h-52.9c.19-3.52.44-7,1.93-10.31A1.67,1.67,0,0,0,689.4,331.93Z"/><path class="cls-8" d="M784.93,371.7V379H643.25V371.7Z"/><path class="cls-8" d="M658.13,394.22c-1.67,0-3.34,0-5,0-1.21,0-1.69-.56-1.68-1.71,0-1.67,0-3.33,0-5,0-1.2.44-1.84,1.75-1.82,3.33,0,6.67,0,10,0,1.22,0,1.67.55,1.64,1.72q-.06,2.58,0,5.16c0,1.22-.55,1.69-1.71,1.66-1.67,0-3.33,0-5,0Z"/><path class="cls-8" d="M769.67,394.22c-1.72,0-3.45,0-5.17,0A1.32,1.32,0,0,1,763,392.7c0-1.83,0-3.66,0-5.49,0-1,.48-1.52,1.53-1.51,3.4,0,6.79,0,10.19,0,1,0,1.61.44,1.62,1.45,0,1.88,0,3.76,0,5.64a1.29,1.29,0,0,1-1.48,1.42c-1.72,0-3.45,0-5.17,0Z"/><polygon class="cls-9" points="258.74 163.1 215.63 163.1 212.69 166.85 261.37 166.85 258.74 163.1"/><polygon class="cls-9" points="264.11 170.78 209.61 170.78 206.67 174.54 266.73 174.54 264.11 170.78"/><path class="cls-9" d="M276,66.25a17.43,17.43,0,0,0-16-12H246.73a10.78,10.78,0,0,0-21.46,0H212c-6.78,0-14.11,5.5-16,11.92-.08.33-8.18,33.4-8.18,40.79v37.51l12.84,12.84h70.66l12.84-12.84V107c0-7.38-8.1-40.45-8.16-40.7"/><path class="cls-6" d="M204.05,141.75a7.16,7.16,0,1,1,7.16-7.16,7.16,7.16,0,0,1-7.16,7.16"/><path class="cls-6" d="M232.86,95.54H194.44c.66-4.12,7-22.28,7-22.28,1.23-3.42,6.33-6.53,10.71-6.53h21.63Z"/><path class="cls-6" d="M228.93,55.28A7.07,7.07,0,1,1,236,62.35a7.07,7.07,0,0,1-7.07-7.07"/><path class="cls-6" d="M267.94,141.75a7.16,7.16,0,1,1,7.16-7.16,7.16,7.16,0,0,1-7.16,7.16"/><path class="cls-6" d="M239.14,95.54l-.92-28.81h21.63c4.53,0,9.43,3,10.7,6.53,0,0,6.33,18.16,7,22.28Z"/><polygon class="cls-9" points="200.25 177.63 212.98 161.37 205.71 161.37 192.97 177.63 200.25 177.63"/><polygon class="cls-9" points="279.72 177.63 268.37 161.37 261.38 161.37 272.73 177.63 279.72 177.63"/></svg>