<svg id="Layer_1" data-name="Layer 1" xmlns="http://www.w3.org/2000/svg" viewBox="0 0 950 450"><defs><style>.cls-1{fill:#fff;}.cls-2{fill:#7098d0;}.cls-3{fill:#f6ac86;}.cls-4{fill:#9cc487;}.cls-5{fill:#7676b6;}</style></defs><title>MAX Foundation</title><rect class="cls-1" width="950" height="450"/><polygon class="cls-2" points="149.08 73.84 149.08 82.02 814.28 82.02 814.28 57.91 149.08 73.84"/><rect class="cls-3" x="135.72" y="73.84" width="13.36" height="233.19"/><rect class="cls-4" x="800.92" y="82.02" width="13.36" height="219.26" transform="translate(1615.2 383.29) rotate(-180)"/><polygon class="cls-5" points="135.72 292.94 135.72 317.04 800.92 301.11 800.92 292.94 135.72 292.94"/><path d="M359.35,183.45l-10.48-24.57a6.55,6.55,0,0,1-.78-2.5v-.06h-9.75v.17c2.56,1.39,2,3.63,1.73,5.18L336.91,185c-.45,3-.78,5.73-3.12,7.79V193h9.07v-.17c-2.62-1.16-2.23-3.62-1.78-7l3.17-24L354.84,187c1.33,3.13,2.12,4.63,4.9,6.74l12.47-31.91,3.17,26.84c0,1.9-.33,3.56-2.28,4.17V193h10.75v-.17c-2.23-1.56-2.51-3.06-2.84-5.68l-3.67-27.35c0-1.28.39-2.9,1.72-3.29v-.17h-9.63v.06a9.7,9.7,0,0,1-.84,3.45Z"/><path d="M404.26,175.09h-11l5.51-14Zm1.62,4.12,3,7.85c1.5,3.9,1.95,4.51-.78,5.73V193h11.42v-.17c-3.18-1.61-4.18-4.73-5.46-7.91l-11.58-28.57h-8.8v.17c2.67.83,1.62,3.17.84,5.18l-9.3,23.22c-1.22,3.18-2.17,6.3-5.4,7.91V193h10.25v-.17c-2.68-1-2.29-2.61-1.12-5.73l2.9-7.85Z"/><path d="M431.26,177l9.3,14a4.2,4.2,0,0,0,3.61,2h6.41c-3.17-1.17-4.9-4.24-6.68-6.9L435,172.81l12.64-16.49H437.44v.17c3.79.45,1.9,3.45.5,5.35l-5.51,7.46-8.08-11.64c-.55-.89-1.06-1.34-2.78-1.34h-6.46c2.34,1.06,3.9,3.29,5.34,5.41l8.08,11.69L413.1,192.8V193H423.9v-.17c-3.39-1.33-1.72-3.73-.39-5.51Z"/><path d="M453.69,185.18c0,2.51.33,6.63-2.45,7.63V193h10.58v-.17c-2.78-1.06-2.45-5.12-2.45-7.63v-21c0-2.5-.33-6.61,2.45-7.68v-.17H451.24v.17c2.84,1.07,2.45,5.12,2.45,7.68Z"/><path d="M489.33,183.45l-10.47-24.57a6.59,6.59,0,0,1-.78-2.5v-.06h-9.74v.17c2.56,1.39,2,3.63,1.72,5.18L466.88,185c-.45,3-.79,5.73-3.12,7.79V193h9.08v-.17c-2.61-1.16-2.23-3.62-1.78-7l3.17-24L484.82,187c1.33,3.13,2.12,4.63,4.9,6.74l12.48-31.91,3.18,26.84c0,1.9-.34,3.56-2.28,4.17V193h10.74v-.17c-2.22-1.56-2.51-3.06-2.84-5.68l-3.68-27.35c0-1.28.39-2.9,1.73-3.29v-.17h-9.64v.06a9.85,9.85,0,0,1-.83,3.45Z"/><path d="M539.27,193h8.19v-.17c-2.84-1.05-2.51-5.12-2.51-7.63v-21c0-2.56-.33-6.61,2.51-7.68l-.06-.17H536.82v.17c2.78,1.07,2.45,5.13,2.45,7.63v16.76c0,2,.05,3.4-1.17,5.07a9.86,9.86,0,0,1-8.13,3.9c-5.73,0-8.85-3.46-8.85-10.87V164.12c0-2.51-.33-6.56,2.44-7.63v-.17H513v.17c2.84,1.07,2.45,5.13,2.45,7.63V179c0,4-.12,7.74,2.84,11,2.51,2.73,6.4,3.9,10.08,3.9,3.9,0,8.47-1.33,10.92-4.56Z"/><path d="M572.64,156.66a27.91,27.91,0,0,0-8.3-1.22c-6.79,0-14,2.67-14,9.69,0,11.8,19.16,10.24,19.16,18.93,0,3.9-4.79,5.8-8,5.8a19.3,19.3,0,0,1-12.2-4.63l1.62,7a28.8,28.8,0,0,0,10,1.67c8.68,0,14.93-5.57,14.93-11.53,0-10.3-19.16-10.19-19.16-17.82,0-3.84,4-5.07,7.19-5.07a12.71,12.71,0,0,1,8.75,3.51Z"/><path d="M576.72,158.7h.49c.42,0,.82,0,.82-.52s-.37-.47-.69-.47h-.62Zm-.46-1.38h1.16c.73,0,1.08.29,1.08.88a.8.8,0,0,1-.82.85l.89,1.36h-.51l-.84-1.33h-.51v1.33h-.46Zm1,3.81a2.26,2.26,0,1,0-2.18-2.26,2.19,2.19,0,0,0,2.18,2.26m0-4.9a2.64,2.64,0,1,1-2.65,2.64,2.63,2.63,0,0,1,2.65-2.64"/><path d="M314.39,174.22c-.11,3.33,1.3,6.33.74,9.56-1.83-2.58-1.2-6-3.12-8.81-.64-1.73-.93-3.18-2.81-4.86a17.45,17.45,0,0,0-5.67-6.71,8.07,8.07,0,0,0-2.71-2.11c-2.12-.36-3.66-1.77-6.34-2.79-2.15-.54-4-1.94-6.5-2.18,0-.53-1.68-.31-2-.74-2.37.26-5.21.14-8.27,1.08-3.07.61-5,1.32-7.54,2.05a60.38,60.38,0,0,0-11.29,10.33c-1.07,2.24-2.94,4.26-3.72,6.65a24.92,24.92,0,0,0-2.23,13,23.38,23.38,0,0,0,1.34,4.67c1.13,3.24,2.17,6.6,4.32,9.61a12.87,12.87,0,0,1,2.25,3.3,62.54,62.54,0,0,0,6.75,5.92c2,1,2.91,1.77,5,2,1.88.49,3.31.7,4.87,1.13,1.49,0,3.15,1.11,3.86,1.5v.54c-5.48,1.3-10.5-.93-15.48-3.11-2-1.12-5.24-2.29-7.76-4.91-9.36-7.32-12.1-18.25-10.41-30.09a12.33,12.33,0,0,1,1.06-3.73c2.48-10.44,12-17.44,21.37-21.64,6.5-2,9.06-1.81,13.48-2.34a35.15,35.15,0,0,1,30.76,22.7"/><path d="M294,164.36c1.27.49,2.59.43,3.44,1.83,3.13,1.29,4.57,4.07,6.67,5.7,1.68,2.41,3.11,4.95,3.33,7.42,2,3.23,1.29,6.76,1.1,10.1-.12,3.13-1.56,6-2.6,8.51a16.92,16.92,0,0,1-4.86,5.4c-3.07,2.35-6,3.41-8.8,4.92-3,1.5-5.6,1.33-8.59,1.07a24.48,24.48,0,0,1-10-2.91c-2.26-.63-4.84-3.33-6.79-4.83a10.87,10.87,0,0,1-1.71-2.59c2.14.11,3.07,1.84,4.63,3a16.35,16.35,0,0,0,5.54,3c2.88.46,5,1.06,7.44,1,1.77,0,3.42.35,5.3-.36,2.14-.47,2-1.18,4.19-1.72,1.6-1.71,5.37-3.48,7.37-5.83,1.78-2,2-2.95,3.16-5a23.21,23.21,0,0,0,1.92-5.46c.46-2.5-.23-4.38-.09-6.37-1.1-3.32-1.62-7-4.2-9l-1.15-1.72c-2.47-2.58-4.65-4.19-6.81-6.23a2.55,2.55,0,0,0,1.52.21"/><path d="M344.89,204.5a4.25,4.25,0,0,0-1.66-1,8.86,8.86,0,0,0-2-.17,21,21,0,0,0-3.15.2v5.63h4a2.44,2.44,0,0,0,1-.2v3.2a2.84,2.84,0,0,0-2.38-.8h-2.69v5.85a12.6,12.6,0,0,0,.12,2.17,2.37,2.37,0,0,0,1.23,1.68H333.7a2.38,2.38,0,0,0,1.23-1.69,12.69,12.69,0,0,0,.12-2.17V205a12.7,12.7,0,0,0-.12-2.18,2.38,2.38,0,0,0-1.23-1.69h10a3.42,3.42,0,0,0,1.14-.17Z"/><path d="M385.24,211.5a9.1,9.1,0,0,0-2.06-6,7,7,0,0,0-5.69-2.63,7.29,7.29,0,0,0-5.45,2.19,7.81,7.81,0,0,0-2.13,5.7,9.19,9.19,0,0,0,2.43,6.4,6.78,6.78,0,0,0,5.29,2.26,7.28,7.28,0,0,0,5.49-2.2,7.89,7.89,0,0,0,2.12-5.71m3.43-.5a9.9,9.9,0,0,1-3.25,7.5,11.71,11.71,0,0,1-15.72.06,9.66,9.66,0,0,1-3.2-7.33,9.84,9.84,0,0,1,3.27-7.52,11.52,11.52,0,0,1,8.14-3,10.59,10.59,0,0,1,7.7,3,9.72,9.72,0,0,1,2.25,3.35,10.43,10.43,0,0,1,.81,4"/><path d="M429.29,221.07H425V219a7.36,7.36,0,0,1-6,2.57,7.94,7.94,0,0,1-4.15-1.06,5.57,5.57,0,0,1-2.6-3.29,14,14,0,0,1-.29-3.38V205a12.7,12.7,0,0,0-.12-2.18,2.38,2.38,0,0,0-1.23-1.69h5.72a2.46,2.46,0,0,0-1.23,1.69A12.88,12.88,0,0,0,415,205v8.78a5.91,5.91,0,0,0,1.06,3.86,4.75,4.75,0,0,0,3.83,1.66,5.06,5.06,0,0,0,4.41-2.15,4.2,4.2,0,0,0,.57-2.35V205a13.33,13.33,0,0,0-.11-2.18,2.46,2.46,0,0,0-1.23-1.69h5.72a2.46,2.46,0,0,0-1.23,1.69,13.1,13.1,0,0,0-.11,2.18V217.2a13,13,0,0,0,.11,2.17,2.45,2.45,0,0,0,1.23,1.69"/><path d="M472.92,201.18a3.31,3.31,0,0,0-1.29,1.33,5.75,5.75,0,0,0-.31,2.22V222a9,9,0,0,1-4.15-3.18l-10.58-13.42v12.07a5.64,5.64,0,0,0,.33,2.22,3.26,3.26,0,0,0,1.24,1.33h-5.38a3.29,3.29,0,0,0,1.29-1.33,5.78,5.78,0,0,0,.31-2.22V204.73a5.68,5.68,0,0,0-.33-2.22,3.26,3.26,0,0,0-1.25-1.33h4.41a8.12,8.12,0,0,0,.72,1.11l11.19,14.25V204.73a5.52,5.52,0,0,0-.33-2.2,3.44,3.44,0,0,0-1.27-1.35Z"/><path d="M511.57,211.25a8.1,8.1,0,0,0-2.11-5.74,7.83,7.83,0,0,0-6-2.27,14.89,14.89,0,0,0-2.78.31v15.05a12.22,12.22,0,0,0,2.23.2,9.61,9.61,0,0,0,5.75-1.45,7.12,7.12,0,0,0,2.95-6.1m3.32-.32a10,10,0,0,1-1.58,5.46,9.4,9.4,0,0,1-4.2,3.67q-2.23,1-8,1h-4.86a3.74,3.74,0,0,0,1.09-1.35,9.55,9.55,0,0,0,.26-2.66V205a13,13,0,0,0-.11-2.17,2.38,2.38,0,0,0-1.23-1.69h7.41a11.89,11.89,0,0,1,7.84,2.48,9,9,0,0,1,3.38,7.27"/><path d="M548,211.62l-3.06-7.89-3.09,7.89Zm8.24,9.44h-6.26q1.09-.66,1.08-1.2a7,7,0,0,0-.52-1.69l-1.77-4.61h-7.64l-1.71,4.61a4.54,4.54,0,0,0-.34,1.54c0,.52.36,1,1.08,1.35h-5.55a5.17,5.17,0,0,0,1.51-1.37,16.15,16.15,0,0,0,1.29-2.69l5.32-13.28a4,4,0,0,0,.35-1.37c0-.48-.31-.87-.92-1.17h4.81L553.28,217a12.69,12.69,0,0,0,1.32,2.63,5.3,5.3,0,0,0,1.6,1.43"/><path d="M590.84,201l-1,3.61a1.89,1.89,0,0,0-1.2-1,6.43,6.43,0,0,0-1.63-.14l-.76,0q-.53,0-1.36,0h-.49v14a5.68,5.68,0,0,0,.31,2.19,3.47,3.47,0,0,0,1.29,1.36h-6a2.38,2.38,0,0,0,1.23-1.69,13,13,0,0,0,.12-2.17V203.53q-.89-.08-2.44-.09a9.12,9.12,0,0,0-2.06.17,5.33,5.33,0,0,0-1.86,1l1.12-3.61a5,5,0,0,0,1.55.2h11.36c.25,0,.64,0,1.17-.06l.6-.14"/><path d="M619.82,221.07h-5.72a2.38,2.38,0,0,0,1.23-1.69,12.76,12.76,0,0,0,.11-2.17V205a12.78,12.78,0,0,0-.11-2.18,2.38,2.38,0,0,0-1.23-1.69h5.72a2.38,2.38,0,0,0-1.23,1.69,13,13,0,0,0-.11,2.18V217.2a13,13,0,0,0,.11,2.17,2.38,2.38,0,0,0,1.23,1.69"/><path d="M660.73,211.5a9.09,9.09,0,0,0-2.06-6,7,7,0,0,0-5.69-2.63,7.3,7.3,0,0,0-5.45,2.19,7.83,7.83,0,0,0-2.13,5.7,9.2,9.2,0,0,0,2.43,6.4,6.78,6.78,0,0,0,5.29,2.26,7.28,7.28,0,0,0,5.49-2.2,7.89,7.89,0,0,0,2.12-5.71m3.44-.5a9.91,9.91,0,0,1-3.25,7.5,11.71,11.71,0,0,1-15.72.06,9.67,9.67,0,0,1-3.2-7.33,9.83,9.83,0,0,1,3.28-7.52,11.52,11.52,0,0,1,8.14-3,10.6,10.6,0,0,1,7.7,3,9.71,9.71,0,0,1,2.24,3.35,10.4,10.4,0,0,1,.82,4"/><path d="M702.87,201.18a3.29,3.29,0,0,0-1.29,1.33,5.75,5.75,0,0,0-.32,2.22V222a9,9,0,0,1-4.15-3.18l-10.59-13.42v12.07a5.64,5.64,0,0,0,.33,2.22,3.27,3.27,0,0,0,1.24,1.33h-5.38a3.3,3.3,0,0,0,1.29-1.33,5.71,5.71,0,0,0,.31-2.22V204.73a5.68,5.68,0,0,0-.33-2.22,3.26,3.26,0,0,0-1.24-1.33h4.41a8.7,8.7,0,0,0,.71,1.11l11.19,14.25V204.73a5.6,5.6,0,0,0-.33-2.2,3.43,3.43,0,0,0-1.27-1.35Z"/><rect x="590.42" y="155.12" width="1.1" height="38.85"/><path d="M619.58,167c0,4-2.91,6.57-6.73,6.57s-6.74-2.53-6.74-6.57V156.43h3v10.49a3.76,3.76,0,1,0,7.51,0V156.43h3Z"/><path d="M622.62,161.81h2.69v1.82h0a3.55,3.55,0,0,1,3.47-2.1c3,0,4.14,2.15,4.14,4.47v7.16h-2.84v-5.74c0-1.25-.09-3.33-2.08-3.33s-2.6,1.37-2.6,2.88v6.19h-2.83Z"/><path d="M635.88,161.81h2.83v11.34h-2.83Zm1.39-5.55a1.7,1.7,0,1,1-1.8,1.7,1.74,1.74,0,0,1,1.8-1.7"/><path d="M640.3,164.22v-2.41h2.34v-3.28h2.84v3.28h3.12v2.41h-3.12v5c0,1.14.33,1.84,1.58,1.84a2.94,2.94,0,0,0,1.54-.36v2.39a6,6,0,0,1-2.25.38c-3,0-3.71-1.35-3.71-4v-5.2Z"/><path d="M658.54,166.35a2.61,2.61,0,0,0-2.88-2.69,2.82,2.82,0,0,0-2.93,2.69Zm-5.81,2.13a2.94,2.94,0,0,0,3,2.69,3.74,3.74,0,0,0,3-1.54l2,1.54a6.07,6.07,0,1,1-4.8-9.64c3.16,0,5.31,2.22,5.31,6.17v.78Z"/><path d="M669.27,170.89a3.4,3.4,0,1,0-3.33-3.4,3.28,3.28,0,0,0,3.33,3.4m3.38.57h0a4.37,4.37,0,0,1-3.9,2c-3.5,0-5.6-2.6-5.6-6s2.24-6,5.48-6a4.67,4.67,0,0,1,3.85,1.72h.07v-8h2.84v17.86h-2.69Z"/><polygon points="606.18 176.21 609.15 176.21 609.15 183.3 609.3 183.3 616.22 176.21 620.24 176.21 612.41 183.94 620.76 192.94 616.58 192.94 609.32 184.72 609.15 184.72 609.15 192.94 606.18 192.94 606.18 176.21"/><path d="M621.8,181.6h2.83v11.34H621.8Zm1.4-5.55a1.7,1.7,0,1,1-1.8,1.7,1.74,1.74,0,0,1,1.8-1.7"/><path d="M627.54,181.6h2.69v1.82h0a3.55,3.55,0,0,1,3.47-2.1c3,0,4.13,2.15,4.13,4.47v7.16h-2.83V187.2c0-1.25-.09-3.33-2.08-3.33s-2.6,1.37-2.6,2.88v6.19h-2.83Z"/><path d="M643,187.24a3.27,3.27,0,0,0,3.33,3.29,3.19,3.19,0,0,0,3.38-3.33,3.16,3.16,0,0,0-3.35-3.33,3.21,3.21,0,0,0-3.36,3.38m9.4-5.65v10.33c0,4.09-2,6.69-6.4,6.69a8.08,8.08,0,0,1-5.62-1.87l1.7-2.32a5.46,5.46,0,0,0,3.9,1.63c2.74,0,3.59-1.56,3.59-3.8v-.83h0a4.61,4.61,0,0,1-3.71,1.65,5.55,5.55,0,0,1-5.65-5.81c0-3.36,2.1-6,5.6-6a4.37,4.37,0,0,1,3.9,2h0v-1.7Z"/><path d="M660.88,190.67a3.4,3.4,0,1,0-3.33-3.4,3.29,3.29,0,0,0,3.33,3.4m3.38.57h0a4.37,4.37,0,0,1-3.9,2c-3.5,0-5.6-2.6-5.6-6s2.24-6,5.48-6A4.66,4.66,0,0,1,664,183h.07v-8H667v17.86h-2.69Z"/><path d="M675.41,190.67a3.4,3.4,0,1,0-3.33-3.4,3.28,3.28,0,0,0,3.33,3.4m0-9.36a6,6,0,1,1-6.17,6,5.88,5.88,0,0,1,6.17-6"/><path d="M683.75,181.6h2.69v1.77h0a3.6,3.6,0,0,1,3.47-2.06,3.46,3.46,0,0,1,3.54,2.1,4,4,0,0,1,3.73-2.1c3,0,4.09,2.15,4.09,4.87v6.76H698.5v-6.43c0-1.42-.43-2.65-2.1-2.65S694,185.33,694,186.8v6.14h-2.84v-6.76c0-1.4-.57-2.32-1.94-2.32-1.87,0-2.6,1.37-2.6,2.88v6.19h-2.83Z"/></svg>