<?xml version="1.0" encoding="utf-8"?>
<!-- Generator: Adobe Illustrator 22.1.0, SVG Export Plug-In . SVG Version: 6.00 Build 0)  -->
<svg version="1.1" id="Layer_1" xmlns="http://www.w3.org/2000/svg" xmlns:xlink="http://www.w3.org/1999/xlink" x="0px" y="0px"
	 viewBox="0 0 1900 900" style="enable-background:new 0 0 1900 900;" xml:space="preserve">
<style type="text/css">
	.st0{fill:#FFFFFF;}
	.st1{fill:#574E84;}
	.st2{fill:#DDDDEB;}
	.st3{fill:#555488;}
	.st4{fill:#D9E9CD;}
	.st5{fill:#507A2E;}
	.st6{fill:#FDECF5;}
	.st7{fill:#702E50;}
	.st8{fill:#E5EAF7;}
	.st9{fill:#205795;}
	.st10{fill:#F8F7F7;}
	.st11{fill:#9CC487;}
	.st12{opacity:0;}
	.st13{fill:#7B75B5;}
	.st14{fill:#7098D0;}
	.st15{fill-rule:evenodd;clip-rule:evenodd;fill:#7098D0;}
	.st16{fill:#A7C682;}
	.st17{fill:#BFBEBF;}
	.st18{fill:url(#SVGID_1_);}
	.st19{fill:#565589;}
	.st20{fill:#F4F3F4;}
	.st21{fill:#E8E7E8;}
	.st22{fill:#DDDBDC;}
	.st23{fill:#D2D0D0;}
	.st24{fill:#C7C5C5;}
	.st25{fill:#BDBABB;}
	.st26{fill:#B3B0B0;}
	.st27{fill:#A9A6A6;}
	.st28{fill:#9F9D9D;}
	.st29{fill:#969393;}
	.st30{fill:#8C8A8A;}
	.st31{fill:#838181;}
	.st32{fill:#7B7978;}
	.st33{fill:#727070;}
	.st34{fill:#6A6968;}
	.st35{fill:#626161;}
	.st36{fill:#E5E4E4;}
	.st37{fill:url(#SVGID_4_);}
	.st38{fill:url(#SVGID_5_);}
</style>
<rect x="0" class="st0" width="1900" height="900"/>
<g>
	<path class="st1" d="M341.9,223.8c0,35-16.6,57.8-49.1,57.8c-27.1,0-45.9-16.1-45.9-54.7c0-35,16.6-57.8,49.1-57.8
		C323.1,169,341.9,185.2,341.9,223.8z M269.6,226.2c0,26.3,8.8,36.9,23.7,36.9c17,0,26-13.7,26-38.8c0-26.3-8.8-36.9-23.7-36.9
		C278.6,187.4,269.6,201.1,269.6,226.2z"/>
	<path class="st1" d="M367.9,199.7c9,0,9.9,0.6,9.9,2.3v41c0,10.5,0.6,13.7,3,16.4c2,2.3,5.6,3.5,10,3.5c3.5,0,7.3-0.8,10-2.4
		c3.2-2,4-4.4,4.3-8.1c0.3-3.5,0.3-9.1,0.3-14.9V202c0-1.7,0.3-2.3,10.2-2.3h0.8c9,0,9.9,0.6,9.9,2.3V244c0,11.9,0.5,25.1,1.1,33.3
		c0.2,2.1-0.5,2.7-9.1,2.7h-0.8c-7.4,0-8.8-0.3-9.4-2c-0.5-1.4-0.8-3.8-1.1-6.1c-4.9,5.8-12.6,9.6-21.9,9.6s-16.4-3-21-8.2
		c-5-5.6-7.1-12.9-7.1-24.5V202c0-1.7,0.3-2.3,10.2-2.3H367.9z"/>
	<path class="st1" d="M455.9,199.7c7.4,0,8.8,0.3,9.3,2c0.5,1.4,1.5,9.6,1.8,15.7c4.9-12.5,11.2-19.2,21-19.2c1.5,0,2.9,0.2,4,0.6
		s1.4,0.8,1.4,7.6v2.1c0,7.8-0.5,8.1-2.1,8.2c-8.5,0.8-13.8,4.4-17.8,10.3c-3.8,5.8-5.6,14.4-5.6,28.7v21.9c0,1.7-0.9,2.3-9.9,2.3
		h-0.8c-9.9,0-10.2-0.6-10.2-2.3v-42c0-11.9-0.5-25.1-1.1-33.3c-0.2-2.1,0.5-2.7,9.1-2.7H455.9z"/>
	<path class="st16" d="M558.1,170.6c9.4,0,10.6,0.8,10.9,2.6l6.7,44.8c1.8,12.6,3.8,28.9,4.6,40.7c3.6-11.4,10.8-29.2,15.8-41
		l19.2-44.5c0.9-2,1.7-2.6,10.5-2.6h0.9c8.7,0,10.5,0.8,9.7,2.6l-45.8,103.7c-1.1,2.4-3.5,3.2-12.5,3.2h-0.8
		c-10.5,0-12-0.5-12.5-2.9l-18.2-104c-0.3-1.8,0.6-2.6,9.3-2.6H558.1z"/>
	<path class="st16" d="M704.2,230.6c0,30.2-15,50.9-42.7,50.9c-21,0-33-10.9-33-32.1c0-30.7,15.7-51.2,42.6-51.2
		C692,198.2,704.2,209.3,704.2,230.6z M649.6,246.7c0,10.9,4.7,16.9,14.4,16.9c12.9,0,19-14.3,19-30.6c0-10.8-4.4-16.9-14-16.9
		C656.1,216.2,649.6,230.9,649.6,246.7z"/>
	<path class="st16" d="M739.4,164.5c8.5,0,9.4,0.5,9.4,2.9c0,5.8-1.8,23.7-4.7,43.3l-7.1,49.4c-0.5,3.2,0.2,4.1,3.8,4.1h2.1
		c1.7,0,1.8,0.6,1.1,5.9l-0.3,2.1c-0.8,5.3-1.1,5.8-2.6,6.5c-2.6,1.2-6.8,2-9.9,2c-11.1,0-15-6.1-15-15c0-2.4,0.6-7.1,1.2-11.2
		l6.5-47c2.3-16.7,4.3-35.6,4.7-41c0.2-1.7,1.1-2,9.7-2H739.4z"/>
	<path class="st16" d="M776.7,199.7c9.7,0,9.9,0.8,9.7,2.3l-5.8,41.6c-0.5,3.3-0.9,6.8-0.9,9.9c0,6.5,3.6,9.4,11.2,9.4
		c4.4,0,8.2-1.4,10.5-3c3.2-2.4,4.7-5.2,7-21.3l5.2-36.6c0.3-1.7,1.4-2.3,10-2.3h0.8c9.7,0,9.9,0.8,9.7,2.3l-5.8,41.9
		c-1.8,12.8-3.3,24.9-3.8,33.3c-0.2,2.1-0.9,2.7-9.1,2.7h-0.8c-3.8,0-6.7-0.3-7.9-0.9c-1.2-0.6-1.4-1.7-1.4-7.3
		c-5.8,5.6-14.3,9.7-22.6,9.7c-15.2,0-24-9.6-24-23.1c0-4.4,0.6-9.1,1.4-14.4l5.8-41.9c0.3-1.7,1.2-2.3,9.9-2.3H776.7z"/>
	<path class="st16" d="M863,199.7c3.8,0,6.7,0.3,7.9,0.9s1.4,1.7,1.4,7.3c5.8-5.8,13.5-9.7,21.9-9.7c10.3,0,17.5,4.7,21,12
		c6.8-7.6,16-12,25.1-12c14.9,0,23.3,9.6,23.3,23.1c0,4.4-0.6,9.1-1.4,14.4l-5.8,42c-0.3,1.7-1.2,2.3-9.9,2.3h-0.9
		c-9.7,0-9.9-0.8-9.7-2.3l5.8-41.6c0.5-3.3,0.9-7,0.9-9.9c0-6.2-3.3-9.4-10.5-9.4c-3.5,0-7.1,1.1-9.6,2.9c-3.2,2.4-5,5.6-7.1,21.4
		l-5,36.6c-0.3,1.7-1.2,2.3-9.9,2.3h-0.9c-9.7,0-9.9-0.8-9.7-2.3l5.8-41.6c0.5-3.3,0.9-7,0.9-9.9c0-6.2-3.3-9.4-10.5-9.4
		c-3.5,0-7.1,1.1-9.6,2.9c-3.2,2.4-4.9,5.6-7.1,21.4l-5.2,36.6c-0.3,1.7-1.4,2.3-10,2.3h-0.8c-9.7,0-9.9-0.8-9.7-2.3l5.8-42
		c1.8-12.8,3.3-24.9,3.8-33.3c0.2-2.1,0.9-2.7,9.1-2.7H863z"/>
	<path class="st16" d="M996.1,247c0.2,10.5,6.2,16.7,17.6,16.7c7.8,0,13.8-1.8,20.8-4.9c1.8-0.6,2.6,0.3,3.8,4.3l1.4,4.3
		c1.5,4.6,1.5,5.8-0.5,6.8c-8.4,4.7-19.6,7.3-30.2,7.3c-21,0-34.2-12.5-34.2-33.9c0-28.4,17.6-49.4,41.3-49.4
		c20.1,0,31.2,13.7,31.2,32.1c0,6.4-1.1,12.2-2.6,14.9c-0.8,1.2-1.7,1.8-3.5,1.8H996.1z M1027.3,232.3c0-10-4.1-16.6-13.4-16.6
		c-7,0-13.1,5.8-16,16.6H1027.3z"/>
	<path class="st16" d="M1174.6,170.6c2.1,0,2.6,0.3,1.7,8.1l-0.2,1.2c-0.9,7.4-1.8,8.4-3.8,8.4h-24.6l-12.6,89.5
		c-0.2,1.8-2.6,2.3-10.5,2.3h-1.7c-8.4,0-9.7-0.5-9.6-2.3l12.6-89.5h-24.5c-2,0-2.3-0.6-1.4-8.4l0.2-1.2c1.1-8.1,1.5-8.1,3.6-8.1
		H1174.6z"/>
	<path class="st16" d="M1223.7,201.7c0.5-1.4,1.4-2,9.3-2h0.9c7.3,0,8.4,0.6,8.1,2.1c-1.5,8.5-3.3,20.1-4.9,32.2l-1.4,9.9
		c-2,14.6-2.9,24.8-3.3,33.4c-0.2,2.1-0.8,2.6-9.1,2.6h-0.6c-3.8,0-6.7-0.3-7.9-0.9s-1.4-2-1.4-6.8c-5,6.2-12.5,9.3-20.1,9.3
		c-17.8,0-28.4-12.5-28.4-31.6c0-29.6,17.2-51.7,38.5-51.7c8.4,0,14.9,3.5,18.8,8.1L1223.7,201.7z M1218.2,221.3
		c-2.6-2.9-7.4-5.2-11.9-5.2c-14.9,0-20.2,18.5-20.2,31.8c0,10.8,5,16.1,12.3,16.1c4.3,0,8.8-1.4,11.4-4.1c2.7-2.9,4-6.7,5.2-15.2
		L1218.2,221.3z"/>
	<path class="st16" d="M1270.4,199.7c3.8,0,6.7,0.3,7.9,0.9s1.4,1.7,1.4,7.3c0,2.9-0.3,6.5-0.6,9.4c6.5-12.5,13.8-19.2,22.8-19.2
		c3.5,0,4.7,0.6,4.9,2c0.2,1.7,0.2,3.2-0.3,6.7l-0.2,1.1c-1.1,7.4-2,8.7-3.8,8.8c-8.2,0.8-13.7,4.6-18.4,10.3s-7.6,14.1-9.6,28.7
		l-3,21.9c-0.3,1.7-1.4,2.3-10,2.3h-0.8c-9.7,0-9.9-0.8-9.7-2.3l5.8-42c1.8-12.8,3.3-24.9,3.8-33.3c0.2-2.1,0.9-2.7,9.1-2.7H1270.4z
		"/>
	<path class="st16" d="M1377.5,199.7c5.5,0,7.1,1.1,7.1,4.1c0,4.6-1.7,16.7-3.5,29.8l-5.2,36.5c-3.5,24.3-9.7,45.3-39.8,45.3
		c-8.5,0-19.3-2.3-26.3-5.8c-1.7-0.9-1.2-2.4,0.9-8.1l0.9-2.4c1.7-4.4,2.9-6.2,5-5.3c5.8,2.3,12.9,4,18.4,4c11.7,0,17.6-7.1,19.8-22
		l0.2-1.1c-5.2,4.6-11.9,6.8-18.7,6.8c-16.9,0-27.8-12.8-27.8-31.6c0.2-29.6,17.3-51.7,38.6-51.7c7.6,0,15,3.8,19.2,8.7
		c0.3-1.1,1.1-4,1.8-5.2c0.9-1.5,2.1-2,7-2H1377.5z M1362.3,221.3c-2.4-3-7.3-5.2-11.7-5.2c-5.2,0-9.1,1.8-12.6,5.5
		c-5.2,5.8-8.2,16.7-8.2,26.3c0,10.9,5.6,16.1,13.5,16.1c4.1,0,8.4-1.4,10.9-4.1c2.6-2.9,3.6-6.7,4.9-15.2L1362.3,221.3z"/>
	<path class="st16" d="M1416.7,247c0.2,10.5,6.2,16.7,17.6,16.7c7.8,0,13.8-1.8,20.8-4.9c1.8-0.6,2.6,0.3,3.8,4.3l1.4,4.3
		c1.5,4.6,1.5,5.8-0.5,6.8c-8.4,4.7-19.6,7.3-30.2,7.3c-21,0-34.2-12.5-34.2-33.9c0-28.4,17.6-49.4,41.3-49.4
		c20.1,0,31.2,13.7,31.2,32.1c0,6.4-1.1,12.2-2.6,14.9c-0.8,1.2-1.7,1.8-3.5,1.8H1416.7z M1447.9,232.3c0-10-4.1-16.6-13.4-16.6
		c-7,0-13.1,5.8-16,16.6H1447.9z"/>
	<path class="st16" d="M1494.5,199.7l2.7-19.5c0.3-1.7,1.4-2.3,10-2.3h0.9c9.7,0,9.9,0.8,9.7,2.3l-2.7,19.5h16.4
		c1.8,0,2,0.9,1.1,7.8l-0.2,1.1c-0.9,6.7-1.7,7.4-3.2,7.4h-16.6l-4.9,35.4c-0.3,2-0.6,4.7-0.6,6.5c0,4.4,2.4,6.2,7.1,6.2
		c2.6,0,6.2-0.6,9.1-1.7c1.8-0.6,2.4,0.8,3.2,5.9l0.2,1.1c0.8,5.2,0.9,6.5-1.1,7.8c-4.3,2.6-11.9,4.3-17.6,4.3
		c-14.9,0-21.7-7.4-21.7-20.5c0-3,0.6-8.2,1.1-11.6l4.7-33.4h-9.7c-1.8,0-2-0.9-1.1-7.8l0.2-1.1c0.9-6.7,1.7-7.4,3.2-7.4H1494.5z"/>
</g>
<g>
	<g>
		<g>
			<path class="st17" d="M1630.2,454.5c-1.5,0-2.8,1.3-2.8,2.9V478c0,1.6,1.2,2.9,2.8,2.9c1.5,0,2.8-1.3,2.8-2.9v-20.5
				C1632.9,455.9,1631.7,454.5,1630.2,454.5z"/>
		</g>
		<g>
			<path class="st2" d="M1585.1,427.2v-5.8h20v4.5c-1.7,1.7-3.3,4.2-5,7.4c-1.7,3.2-3,6.7-3.9,10.3c-0.9,3.6-1.3,6.9-1.3,9.7h-5.6
				c0.1-4.5,1-9,2.6-13.7c1.6-4.7,3.8-8.8,6.6-12.5H1585.1z"/>
			<path class="st2" d="M1618.8,420.8c3,0,5.3,1.1,6.9,3.4c2,2.7,3,7.1,3,13.2c0,6.1-1,10.5-3,13.2c-1.7,2.2-4,3.3-6.9,3.3
				c-3,0-5.4-1.2-7.2-3.6c-1.8-2.4-2.7-6.7-2.7-13c0-6.1,1-10.5,3-13.2C1613.5,421.9,1615.8,420.8,1618.8,420.8z M1618.8,426
				c-0.7,0-1.3,0.2-1.9,0.7c-0.6,0.5-1,1.3-1.3,2.6c-0.4,1.6-0.6,4.3-0.6,8.1s0.2,6.4,0.5,7.8c0.4,1.4,0.8,2.4,1.4,2.8
				c0.5,0.5,1.2,0.7,1.9,0.7s1.3-0.2,1.9-0.7c0.6-0.5,1-1.3,1.3-2.6c0.4-1.6,0.6-4.3,0.6-8.1s-0.2-6.4-0.5-7.8
				c-0.4-1.4-0.8-2.4-1.4-2.9C1620.1,426.2,1619.5,426,1618.8,426z"/>
			<path class="st2" d="M1642.5,420.8c3,0,5.3,1.1,6.9,3.4c2,2.7,3,7.1,3,13.2c0,6.1-1,10.5-3,13.2c-1.7,2.2-4,3.3-6.9,3.3
				c-3,0-5.4-1.2-7.2-3.6c-1.8-2.4-2.7-6.7-2.7-13c0-6.1,1-10.5,3-13.2C1637.2,421.9,1639.5,420.8,1642.5,420.8z M1642.5,426
				c-0.7,0-1.3,0.2-1.9,0.7c-0.6,0.5-1,1.3-1.3,2.6c-0.4,1.6-0.6,4.3-0.6,8.1s0.2,6.4,0.5,7.8c0.4,1.4,0.8,2.4,1.4,2.8
				c0.5,0.5,1.2,0.7,1.9,0.7s1.3-0.2,1.9-0.7c0.6-0.5,1-1.3,1.3-2.6c0.4-1.6,0.6-4.3,0.6-8.1s-0.2-6.4-0.5-7.8
				c-0.4-1.4-0.8-2.4-1.4-2.9C1643.8,426.2,1643.2,426,1642.5,426z"/>
			<path class="st2" d="M1657.4,453.4V421h5.9v17.2l6.9-8.3h7.2l-7.6,8.6l8.1,14.9h-6.3l-5.6-10.5l-2.7,3v7.5H1657.4z"/>
		</g>
	</g>
	<g>
		<linearGradient id="SVGID_1_" gradientUnits="userSpaceOnUse" x1="939" y1="561.7876" x2="939" y2="487.6086">
			<stop  offset="6.250000e-02" style="stop-color:#FFFFFF"/>
			<stop  offset="0.9375" style="stop-color:#B4B4B4"/>
		</linearGradient>
		<path class="st18" d="M1734.2,487.6H143.8c-19.3,0-35,16.6-35,37.1c0,20.4,15.7,37.1,35,37.1h1590.5c19.3,0,35-16.6,35-37.1
			C1769.2,504.2,1753.5,487.6,1734.2,487.6z"/>
		<g>
			<path class="st11" d="M1464.6,538.2c-0.1-7,0-14.1,0.1-21.3c0-0.5,0-0.9,0-1.3c0.1-7.3,0.4-14.7,0.7-22.1v0H143.8
				c-16.3,0-29.5,14-29.5,31.2c0,17.2,13.2,31.2,29.5,31.2h1321.1c0,0,0,0,0,0C1464.7,550,1464.7,544.1,1464.6,538.2z"/>
		</g>
		<g>
			<defs>
				<path id="SVGID_2_" d="M1734.2,493.5c-10.6,0-1579.9,0-1590.5,0c-16.3,0-29.5,14-29.5,31.2c0,17.2,13.2,31.2,29.5,31.2
					c10.6,0,1579.9,0,1590.5,0c16.3,0,29.5-14,29.5-31.2C1763.7,507.4,1750.5,493.5,1734.2,493.5z"/>
			</defs>
			<clipPath id="SVGID_3_">
				<use xlink:href="#SVGID_2_"  style="overflow:visible;"/>
			</clipPath>
		</g>
	</g>
	<polygon class="st11" points="1465.5,493.5 1619.3,493.5 1619.3,555.9 1464.8,555.9 	"/>
	<g>
		<path class="st17" d="M542,456.8c-1.5,0-2.8,1.3-2.8,2.9v20.5c0,1.6,1.2,2.9,2.8,2.9c1.5,0,2.8-1.3,2.8-2.9v-20.5
			C544.8,458.1,543.6,456.8,542,456.8z"/>
	</g>
	<g>
		<path class="st17" d="M143.8,423.7c-1.5,0-2.8,1.3-2.8,2.9v43.9c0,1.6,1.2,2.9,2.8,2.9s2.8-1.3,2.8-2.9v-43.9
			C146.5,425,145.3,423.7,143.8,423.7z"/>
	</g>
	<g>
		<g>
			<path class="st19" d="M145.8,338.5c5.6,0,10,2.1,13.2,6.4c3.8,5,5.7,13.4,5.7,25c0,11.6-1.9,20-5.7,25.1
				c-3.1,4.2-7.5,6.3-13.1,6.3c-5.6,0-10.2-2.3-13.6-6.9c-3.5-4.6-5.2-12.8-5.2-24.6c0-11.6,1.9-19.9,5.7-25
				C135.8,340.6,140.2,338.5,145.8,338.5z M145.8,348.3c-1.3,0-2.5,0.5-3.6,1.4c-1.1,0.9-1.9,2.5-2.5,4.9c-0.8,3-1.1,8.2-1.1,15.4
				s0.3,12.2,1,14.9c0.7,2.7,1.5,4.5,2.6,5.4c1,0.9,2.2,1.3,3.6,1.3c1.3,0,2.5-0.5,3.6-1.4c1.1-0.9,1.9-2.5,2.5-4.9
				c0.8-3,1.1-8.1,1.1-15.3s-0.3-12.2-1-14.9c-0.7-2.7-1.5-4.5-2.6-5.4C148.3,348.8,147.1,348.3,145.8,348.3z"/>
		</g>
	</g>
	<g>
		<g>
			<path class="st19" d="M1644.8,350.6v-10.9h38v8.6c-3.1,3.3-6.3,8-9.6,14.1c-3.2,6.1-5.7,12.6-7.4,19.5c-1.7,6.9-2.5,13-2.5,18.5
				h-10.7c0.2-8.5,1.8-17.2,5-26s7.3-16.7,12.5-23.7H1644.8z"/>
			<path class="st19" d="M1727.4,353.8l-10.8,1.3c-0.3-2.3-0.9-4.1-2.1-5.2c-1.1-1.1-2.5-1.7-4.3-1.7c-2.3,0-4.3,1.1-6,3.4
				c-1.6,2.2-2.6,6.9-3.1,14c2.8-3.5,6.2-5.2,10.3-5.2c4.6,0,8.6,1.9,11.9,5.6c3.3,3.7,5,8.6,5,14.5c0,6.3-1.7,11.3-5.2,15.1
				s-7.9,5.7-13.4,5.7c-5.9,0-10.7-2.4-14.4-7.2s-5.7-12.7-5.7-23.7c0-11.3,2-19.4,5.9-24.4c3.9-5,9-7.5,15.3-7.5
				c4.4,0,8,1.3,10.9,3.9S1726.6,348.9,1727.4,353.8z M1702.2,379.5c0,3.8,0.8,6.8,2.5,8.9c1.7,2.1,3.6,3.1,5.7,3.1
				c2.1,0,3.8-0.9,5.1-2.6s2.1-4.5,2.1-8.4c0-4-0.7-6.9-2.2-8.8c-1.5-1.9-3.3-2.8-5.5-2.8c-2.1,0-3.9,0.9-5.4,2.7
				C1703,373.5,1702.2,376.1,1702.2,379.5z"/>
			<path class="st19" d="M1753.6,338.5c5.6,0,10,2.1,13.2,6.4c3.8,5,5.7,13.4,5.7,25c0,11.6-1.9,20-5.7,25.1
				c-3.1,4.2-7.5,6.3-13.1,6.3c-5.6,0-10.2-2.3-13.6-6.9c-3.5-4.6-5.2-12.8-5.2-24.6c0-11.6,1.9-19.9,5.7-25
				C1743.6,340.6,1748,338.5,1753.6,338.5z M1753.6,348.3c-1.3,0-2.5,0.5-3.6,1.4c-1.1,0.9-1.9,2.5-2.5,4.9c-0.8,3-1.1,8.2-1.1,15.4
				s0.3,12.2,1,14.9c0.7,2.7,1.5,4.5,2.6,5.4s2.2,1.3,3.6,1.3c1.3,0,2.5-0.5,3.6-1.4c1.1-0.9,1.9-2.5,2.5-4.9
				c0.8-3,1.1-8.1,1.1-15.3s-0.3-12.2-1-14.9s-1.5-4.5-2.6-5.4C1756.1,348.8,1754.9,348.3,1753.6,348.3z"/>
			<path class="st19" d="M1781.8,400.3v-61.5h11.1v32.6l13-15.7h13.7l-14.3,16.3l15.4,28.3h-12l-10.6-20l-5.2,5.7v14.3H1781.8z"/>
		</g>
	</g>
	<g>
		<path class="st17" d="M1731.5,424c-1.5,0-2.8,1.3-2.8,2.9v43.9c0,1.6,1.2,2.9,2.8,2.9s2.8-1.3,2.8-2.9V427
			C1734.2,425.3,1733,424,1731.5,424z"/>
	</g>
	<g>
		<path class="st0" d="M1321.7,509.7v-7.2h24.9v5.6c-2.1,2.1-4.1,5.2-6.3,9.2c-2.1,4-3.7,8.3-4.9,12.8s-1.7,8.6-1.6,12.1h-7
			c0.1-5.6,1.2-11.3,3.3-17.1s4.8-11,8.2-15.5H1321.7z"/>
		<path class="st0" d="M1370.4,542.3h-7.3v-29.1c-2.7,2.6-5.8,4.6-9.4,5.9v-7c1.9-0.7,4-1.9,6.2-3.8c2.2-1.8,3.8-4,4.6-6.5h5.9
			V542.3z"/>
		<path class="st0" d="M1406.5,535.1v7.2H1381c0.3-2.7,1.1-5.3,2.5-7.7c1.4-2.4,4.1-5.7,8.2-9.7c3.3-3.2,5.3-5.4,6-6.6
			c1-1.6,1.5-3.2,1.5-4.7c0-1.7-0.4-3-1.3-4c-0.9-0.9-2.1-1.4-3.6-1.4c-1.5,0-2.7,0.5-3.6,1.5c-0.9,1-1.4,2.6-1.6,4.8l-7.3-0.8
			c0.4-4.3,1.8-7.3,4.1-9.2s5.1-2.8,8.6-2.8c3.8,0,6.7,1.1,8.8,3.2c2.1,2.1,3.2,4.8,3.2,8c0,1.8-0.3,3.5-0.9,5.2
			c-0.6,1.6-1.6,3.4-2.9,5.2c-0.9,1.2-2.5,2.9-4.8,5.1c-2.3,2.2-3.8,3.7-4.4,4.5c-0.6,0.7-1.1,1.4-1.5,2.1H1406.5z"/>
		<path class="st0" d="M1413.4,534.6h7.3v5.5c0,2.2-0.2,4-0.5,5.3c-0.4,1.3-1,2.5-2.1,3.5c-1,1-2.3,1.8-3.9,2.4l-1.4-3.2
			c1.5-0.5,2.5-1.2,3.1-2.1s1-2.1,1-3.7h-3.5V534.6z"/>
		<path class="st0" d="M1427.1,531.6l7.1-0.9c0.2,1.9,0.8,3.4,1.8,4.4c1,1,2.2,1.5,3.6,1.5c1.5,0,2.8-0.6,3.8-1.8
			c1-1.2,1.5-2.8,1.5-4.9c0-1.9-0.5-3.5-1.5-4.6s-2.2-1.7-3.6-1.7c-0.9,0-2,0.2-3.3,0.6l0.8-6.3c2,0.1,3.5-0.4,4.5-1.4
			s1.6-2.2,1.6-3.8c0-1.4-0.4-2.4-1.1-3.2s-1.8-1.2-3-1.2c-1.2,0-2.3,0.5-3.2,1.4c-0.9,0.9-1.4,2.3-1.6,4l-6.7-1.2
			c0.5-2.4,1.2-4.4,2.1-5.8c0.9-1.5,2.3-2.6,3.9-3.4s3.6-1.3,5.7-1.3c3.6,0,6.4,1.2,8.6,3.6c1.8,2,2.7,4.2,2.7,6.7
			c0,3.5-1.8,6.4-5.5,8.5c2.2,0.5,3.9,1.6,5.2,3.3c1.3,1.7,2,3.8,2,6.2c0,3.5-1.2,6.6-3.7,9c-2.4,2.5-5.5,3.7-9.1,3.7
			c-3.4,0-6.3-1-8.6-3.1S1427.5,535,1427.1,531.6z"/>
		<path class="st0" d="M1476.1,542.3h-7.3v-29.1c-2.7,2.6-5.8,4.6-9.4,5.9v-7c1.9-0.7,4-1.9,6.2-3.8c2.2-1.8,3.8-4,4.6-6.5h5.9
			V542.3z"/>
		<path class="st0" d="M1487.7,531.9l7.3-0.8c0.2,1.7,0.8,3.1,1.8,4.1c1,1,2.2,1.5,3.5,1.5c1.5,0,2.8-0.7,3.9-2
			c1.1-1.3,1.6-3.3,1.6-5.9c0-2.5-0.5-4.3-1.6-5.6c-1-1.2-2.4-1.9-4.1-1.9c-2.1,0-4,1-5.6,2.9l-5.9-0.9l3.7-21h19.3v7.2h-13.7
			l-1.1,6.8c1.6-0.9,3.3-1.3,5-1.3c3.2,0,6,1.2,8.2,3.7c2.2,2.5,3.4,5.7,3.4,9.7c0,3.3-0.9,6.3-2.7,8.9c-2.5,3.6-5.9,5.3-10.3,5.3
			c-3.5,0-6.4-1-8.6-3C1489.5,538,1488.1,535.3,1487.7,531.9z"/>
	</g>
	<g>
		<path class="st17" d="M325.3,453.4c-1.5,0-2.8,1.3-2.8,2.9v20.5c0,1.6,1.2,2.9,2.8,2.9c1.5,0,2.8-1.3,2.8-2.9v-20.5
			C328.1,454.7,326.9,453.4,325.3,453.4z"/>
	</g>
	<g>
		<g>
			<path class="st19" d="M1602.2,523.4c0.1,10.7,0,21.6-0.4,32.5h130.5c17.3,0,31.4-14,31.4-31.2c0-17.2-14.1-31.2-31.4-31.2h-130.5
				C1602,503.5,1602.1,513.5,1602.2,523.4z"/>
		</g>
	</g>
	<g>
		<g>
			<g>
				<path class="st0" d="M1631.4,624.3c-39.6,0-71.8-34.2-71.8-76.1c0-42,32.2-76.1,71.8-76.1c39.6,0,71.8,34.1,71.8,76.1
					C1703.2,590.1,1671,624.3,1631.4,624.3L1631.4,624.3z"/>
				<path class="st20" d="M1631.4,470.9c39.4,0,71.4,34,71.4,75.8c0,41.8-32,75.8-71.4,75.8c-39.4,0-71.5-34-71.5-75.8
					C1560,504.9,1592,470.9,1631.4,470.9z"/>
				<path class="st21" d="M1631.4,469.8c39.2,0,71.1,33.8,71.1,75.4c0,41.6-31.9,75.4-71.1,75.4c-39.2,0-71.1-33.8-71.1-75.4
					C1560.3,503.6,1592.2,469.8,1631.4,469.8z"/>
				<path class="st22" d="M1631.4,468.7c39,0,70.7,33.6,70.7,75c0,41.4-31.7,75-70.7,75c-39,0-70.8-33.7-70.8-75
					C1560.7,502.3,1592.4,468.7,1631.4,468.7z"/>
				<path class="st23" d="M1631.4,467.6c38.8,0,70.4,33.5,70.4,74.7c0,41.2-31.6,74.7-70.4,74.7c-38.8,0-70.4-33.5-70.4-74.7
					C1561,501.1,1592.6,467.6,1631.4,467.6z"/>
				<path class="st24" d="M1631.4,466.5c38.6,0,70.1,33.3,70.1,74.3c0,41-31.4,74.3-70.1,74.3c-38.7,0-70.1-33.3-70.1-74.3
					C1561.4,499.8,1592.8,466.5,1631.4,466.5z"/>
				<path class="st25" d="M1631.4,465.4c38.5,0,69.7,33.1,69.7,73.9c0,40.8-31.3,73.9-69.7,73.9c-38.5,0-69.7-33.1-69.7-73.9
					C1561.7,498.5,1593,465.4,1631.4,465.4z"/>
				<path class="st26" d="M1631.4,464.3c38.3,0,69.4,33,69.4,73.6c0,40.6-31.1,73.6-69.4,73.6c-38.3,0-69.4-33-69.4-73.6
					C1562,497.3,1593.1,464.3,1631.4,464.3z"/>
				<path class="st27" d="M1631.4,463.2c38.1,0,69,32.8,69,73.2c0,40.4-30.9,73.2-69,73.2c-38.1,0-69-32.8-69-73.2
					C1562.4,496,1593.3,463.2,1631.4,463.2z"/>
				<path class="st28" d="M1631.4,462.1c37.9,0,68.7,32.6,68.7,72.8c0,40.2-30.8,72.8-68.7,72.8c-37.9,0-68.7-32.6-68.7-72.8
					C1562.7,494.7,1593.5,462.1,1631.4,462.1z"/>
				<path class="st29" d="M1631.4,461c37.7,0,68.3,32.5,68.3,72.5c0,40-30.6,72.5-68.3,72.5c-37.7,0-68.3-32.5-68.3-72.5
					C1563.1,493.5,1593.7,461,1631.4,461z"/>
				<path class="st30" d="M1631.4,459.9c37.5,0,68,32.3,68,72.1c0,39.8-30.5,72.1-68,72.1c-37.5,0-68-32.3-68-72.1
					C1563.4,492.2,1593.9,459.9,1631.4,459.9z"/>
				<path class="st31" d="M1631.4,458.8c37.3,0,67.6,32.1,67.6,71.7c0,39.6-30.3,71.7-67.6,71.7c-37.3,0-67.7-32.1-67.7-71.7
					C1563.8,490.9,1594.1,458.8,1631.4,458.8z"/>
				<path class="st32" d="M1631.4,457.7c37.2,0,67.3,32,67.3,71.4c0,39.4-30.1,71.4-67.3,71.4c-37.2,0-67.3-32-67.3-71.4
					C1564.1,489.7,1594.3,457.7,1631.4,457.7z"/>
				<path class="st33" d="M1631.4,456.6c37,0,67,31.8,67,71c0,39.2-30,71-67,71c-37,0-67-31.8-67-71
					C1564.5,488.4,1594.4,456.6,1631.4,456.6z"/>
				<path class="st34" d="M1631.4,455.5c36.8,0,66.6,31.6,66.6,70.6c0,39-29.8,70.6-66.6,70.6c-36.8,0-66.6-31.6-66.6-70.6
					C1564.8,487.1,1594.6,455.5,1631.4,455.5z"/>
				<path class="st35" d="M1631.4,454.4c-36.6,0-66.3,31.5-66.3,70.3c0,38.8,29.7,70.3,66.3,70.3c36.6,0,66.3-31.5,66.3-70.3
					C1697.7,485.9,1668,454.4,1631.4,454.4z"/>
			</g>
			<path class="st36" d="M1631.4,600.8c-39.6,0-71.8-34.1-71.8-76.1c0-42,32.2-76.1,71.8-76.1c39.6,0,71.8,34.2,71.8,76.1
				C1703.2,566.7,1671,600.8,1631.4,600.8L1631.4,600.8z"/>
			<g>
				<linearGradient id="SVGID_4_" gradientUnits="userSpaceOnUse" x1="1630.4586" y1="525.662" x2="1632.3885" y2="523.7321">
					<stop  offset="0" style="stop-color:#FFFFFF"/>
					<stop  offset="3.193250e-02" style="stop-color:#F4F4F4"/>
					<stop  offset="0.1802" style="stop-color:#C7C5C6"/>
					<stop  offset="0.3129" style="stop-color:#A8A6A7"/>
					<stop  offset="0.424" style="stop-color:#959595"/>
					<stop  offset="0.5" style="stop-color:#8F8F8F"/>
					<stop  offset="0.576" style="stop-color:#959595"/>
					<stop  offset="0.6871" style="stop-color:#A8A6A7"/>
					<stop  offset="0.8198" style="stop-color:#C7C5C6"/>
					<stop  offset="0.9681" style="stop-color:#F4F4F4"/>
					<stop  offset="1" style="stop-color:#FFFFFF"/>
				</linearGradient>
				<path class="st37" d="M1632.7,524.7c0,0.8-0.6,1.4-1.3,1.4c-0.7,0-1.3-0.6-1.3-1.4s0.6-1.4,1.3-1.4
					C1632.2,523.3,1632.7,523.9,1632.7,524.7z"/>
			</g>
		</g>
		<linearGradient id="SVGID_5_" gradientUnits="userSpaceOnUse" x1="1631.4221" y1="561.7831" x2="1631.4221" y2="487.6086">
			<stop  offset="0.25" style="stop-color:#FFFFFF"/>
			<stop  offset="0.75" style="stop-color:#808181"/>
		</linearGradient>
		<path class="st38" d="M1631.4,561.8c-19.3,0-35-16.6-35-37.1c0-20.5,15.7-37.1,35-37.1c19.3,0,35,16.6,35,37.1
			C1666.4,545.1,1650.7,561.8,1631.4,561.8L1631.4,561.8z"/>
		<path class="st11" d="M1660.9,524.7c0,17.3-13.2,31.2-29.4,31.2c-16.3,0-29.5-14-29.5-31.2c0-17.3,13.2-31.2,29.5-31.2
			C1647.7,493.5,1660.9,507.4,1660.9,524.7z"/>
	</g>
	<g>
		<path class="st17" d="M1415.4,454.5c-1.5,0-2.8,1.3-2.8,2.9V478c0,1.6,1.2,2.9,2.8,2.9c1.5,0,2.8-1.3,2.8-2.9v-20.5
			C1418.2,455.9,1417,454.5,1415.4,454.5z"/>
	</g>
	<g>
		<path class="st2" d="M293.2,448.6h-5.9v-23.4c-2.1,2.1-4.7,3.7-7.6,4.7v-5.6c1.5-0.5,3.2-1.5,5-3c1.8-1.5,3-3.2,3.7-5.2h4.8V448.6
			z"/>
		<path class="st2" d="M311.8,416c3,0,5.3,1.1,6.9,3.4c2,2.7,3,7.1,3,13.2c0,6.1-1,10.5-3,13.2c-1.7,2.2-4,3.3-6.9,3.3
			c-3,0-5.4-1.2-7.2-3.6c-1.8-2.4-2.7-6.7-2.7-13c0-6.1,1-10.5,3-13.2C306.5,417.1,308.8,416,311.8,416z M311.8,421.2
			c-0.7,0-1.3,0.2-1.9,0.7c-0.6,0.5-1,1.3-1.3,2.6c-0.4,1.6-0.6,4.3-0.6,8.1s0.2,6.4,0.5,7.8c0.4,1.4,0.8,2.4,1.4,2.8
			c0.5,0.5,1.2,0.7,1.9,0.7c0.7,0,1.3-0.2,1.9-0.7c0.6-0.5,1-1.3,1.3-2.6c0.4-1.6,0.6-4.3,0.6-8.1s-0.2-6.4-0.5-7.8
			c-0.4-1.4-0.8-2.4-1.4-2.9C313.1,421.4,312.5,421.2,311.8,421.2z"/>
		<path class="st2" d="M335.6,416c3,0,5.3,1.1,6.9,3.4c2,2.7,3,7.1,3,13.2c0,6.1-1,10.5-3,13.2c-1.7,2.2-4,3.3-6.9,3.3
			c-3,0-5.4-1.2-7.2-3.6c-1.8-2.4-2.7-6.7-2.7-13c0-6.1,1-10.5,3-13.2C330.3,417.1,332.6,416,335.6,416z M335.6,421.2
			c-0.7,0-1.3,0.2-1.9,0.7c-0.6,0.5-1,1.3-1.3,2.6c-0.4,1.6-0.6,4.3-0.6,8.1s0.2,6.4,0.5,7.8c0.4,1.4,0.8,2.4,1.4,2.8
			c0.5,0.5,1.2,0.7,1.9,0.7c0.7,0,1.3-0.2,1.9-0.7c0.6-0.5,1-1.3,1.3-2.6c0.4-1.6,0.6-4.3,0.6-8.1s-0.2-6.4-0.5-7.8
			c-0.4-1.4-0.8-2.4-1.4-2.9C336.9,421.4,336.3,421.2,335.6,421.2z"/>
		<path class="st2" d="M350.4,448.6v-32.4h5.9v17.2l6.9-8.3h7.2l-7.6,8.6l8.1,14.9h-6.3L359,438l-2.7,3v7.5H350.4z"/>
	</g>
	<g>
		<path class="st17" d="M766.1,453.4c-1.5,0-2.8,1.3-2.8,2.9v20.5c0,1.6,1.2,2.9,2.8,2.9c1.5,0,2.8-1.3,2.8-2.9v-20.5
			C768.9,454.7,767.7,453.4,766.1,453.4z"/>
	</g>
	<g>
		<path class="st17" d="M988.2,453.4c-1.5,0-2.8,1.3-2.8,2.9v20.5c0,1.6,1.2,2.9,2.8,2.9c1.5,0,2.8-1.3,2.8-2.9v-20.5
			C991,454.7,989.8,453.4,988.2,453.4z"/>
	</g>
	<g>
		<path class="st17" d="M1203.3,455.6c-1.5,0-2.8,1.3-2.8,2.9V479c0,1.6,1.2,2.9,2.8,2.9c1.5,0,2.8-1.3,2.8-2.9v-20.5
			C1206,456.9,1204.8,455.6,1203.3,455.6z"/>
	</g>
	<g>
		<path class="st2" d="M520.7,441.3v5.8h-20.5c0.2-2.2,0.9-4.2,2-6.2c1.1-2,3.3-4.5,6.6-7.8c2.6-2.6,4.3-4.4,4.9-5.3
			c0.8-1.3,1.2-2.5,1.2-3.8c0-1.4-0.4-2.5-1.1-3.2c-0.7-0.7-1.7-1.1-2.9-1.1c-1.2,0-2.2,0.4-2.9,1.2c-0.7,0.8-1.1,2.1-1.3,3.9
			l-5.8-0.6c0.3-3.4,1.4-5.9,3.3-7.4c1.8-1.5,4.1-2.2,6.9-2.2c3,0,5.4,0.9,7.1,2.6c1.7,1.7,2.6,3.9,2.6,6.4c0,1.5-0.2,2.8-0.7,4.2
			c-0.5,1.3-1.3,2.7-2.3,4.1c-0.7,1-2,2.3-3.8,4.1c-1.8,1.8-3,3-3.5,3.6c-0.5,0.6-0.9,1.2-1.2,1.7H520.7z"/>
		<path class="st2" d="M534.6,414.5c3,0,5.3,1.1,6.9,3.4c2,2.7,3,7.1,3,13.2c0,6.1-1,10.5-3,13.2c-1.7,2.2-4,3.3-6.9,3.3
			c-3,0-5.4-1.2-7.2-3.6c-1.8-2.4-2.7-6.7-2.7-13c0-6.1,1-10.5,3-13.2C529.3,415.7,531.6,414.5,534.6,414.5z M534.6,419.7
			c-0.7,0-1.3,0.2-1.9,0.7c-0.6,0.5-1,1.3-1.3,2.6c-0.4,1.6-0.6,4.3-0.6,8.1s0.2,6.4,0.5,7.8c0.4,1.4,0.8,2.4,1.4,2.8
			c0.5,0.5,1.2,0.7,1.9,0.7c0.7,0,1.3-0.2,1.9-0.7c0.6-0.5,1-1.3,1.3-2.6c0.4-1.6,0.6-4.3,0.6-8.1s-0.2-6.4-0.5-7.8
			c-0.4-1.4-0.8-2.4-1.4-2.9C535.9,419.9,535.3,419.7,534.6,419.7z"/>
		<path class="st2" d="M558.3,414.5c3,0,5.3,1.1,6.9,3.4c2,2.7,3,7.1,3,13.2c0,6.1-1,10.5-3,13.2c-1.7,2.2-4,3.3-6.9,3.3
			c-3,0-5.4-1.2-7.2-3.6c-1.8-2.4-2.7-6.7-2.7-13c0-6.1,1-10.5,3-13.2C553.1,415.7,555.4,414.5,558.3,414.5z M558.3,419.7
			c-0.7,0-1.3,0.2-1.9,0.7c-0.6,0.5-1,1.3-1.3,2.6c-0.4,1.6-0.6,4.3-0.6,8.1s0.2,6.4,0.5,7.8c0.4,1.4,0.8,2.4,1.4,2.8
			c0.5,0.5,1.2,0.7,1.9,0.7c0.7,0,1.3-0.2,1.9-0.7c0.6-0.5,1-1.3,1.3-2.6c0.4-1.6,0.6-4.3,0.6-8.1s-0.2-6.4-0.5-7.8
			c-0.4-1.4-0.8-2.4-1.4-2.9C559.7,419.9,559,419.7,558.3,419.7z"/>
		<path class="st2" d="M573.2,447.1v-32.4h5.9v17.2l6.9-8.3h7.2l-7.6,8.6l8.1,14.9h-6.3l-5.6-10.5l-2.7,3v7.5H573.2z"/>
	</g>
	<g>
		<path class="st2" d="M720.1,440l5.7-0.7c0.2,1.5,0.7,2.7,1.5,3.5c0.8,0.8,1.8,1.2,2.9,1.2c1.2,0,2.2-0.5,3.1-1.5
			c0.8-1,1.2-2.3,1.2-3.9c0-1.6-0.4-2.8-1.2-3.7c-0.8-0.9-1.8-1.4-2.9-1.4c-0.8,0-1.6,0.2-2.7,0.5l0.6-5.1c1.6,0,2.8-0.3,3.6-1.1
			c0.8-0.8,1.3-1.8,1.3-3.1c0-1.1-0.3-2-0.9-2.6c-0.6-0.6-1.4-1-2.4-1c-1,0-1.9,0.4-2.6,1.1c-0.7,0.7-1.1,1.8-1.3,3.2l-5.4-1
			c0.4-2,0.9-3.5,1.7-4.7c0.8-1.2,1.8-2.1,3.2-2.8s2.9-1,4.6-1c2.9,0,5.2,1,6.9,2.9c1.4,1.6,2.1,3.4,2.1,5.4c0,2.8-1.5,5.1-4.4,6.8
			c1.8,0.4,3.2,1.3,4.2,2.7c1,1.4,1.6,3.1,1.6,5c0,2.8-1,5.3-2.9,7.3c-2,2-4.4,3-7.3,3c-2.8,0-5.1-0.8-6.9-2.5
			S720.4,442.7,720.1,440z"/>
		<path class="st2" d="M753.9,416c3,0,5.3,1.1,6.9,3.4c2,2.7,3,7.1,3,13.2c0,6.1-1,10.5-3,13.2c-1.7,2.2-4,3.3-6.9,3.3
			c-3,0-5.4-1.2-7.2-3.6c-1.8-2.4-2.7-6.7-2.7-13c0-6.1,1-10.5,3-13.2C748.7,417.1,751,416,753.9,416z M753.9,421.2
			c-0.7,0-1.3,0.2-1.9,0.7c-0.6,0.5-1,1.3-1.3,2.6c-0.4,1.6-0.6,4.3-0.6,8.1s0.2,6.4,0.5,7.8c0.4,1.4,0.8,2.4,1.4,2.8
			c0.5,0.5,1.2,0.7,1.9,0.7c0.7,0,1.3-0.2,1.9-0.7c0.6-0.5,1-1.3,1.3-2.6c0.4-1.6,0.6-4.3,0.6-8.1s-0.2-6.4-0.5-7.8
			c-0.4-1.4-0.8-2.4-1.4-2.9C755.3,421.4,754.6,421.2,753.9,421.2z"/>
		<path class="st2" d="M777.7,416c3,0,5.3,1.1,6.9,3.4c2,2.7,3,7.1,3,13.2c0,6.1-1,10.5-3,13.2c-1.7,2.2-4,3.3-6.9,3.3
			c-3,0-5.4-1.2-7.2-3.6c-1.8-2.4-2.7-6.7-2.7-13c0-6.1,1-10.5,3-13.2C772.4,417.1,774.7,416,777.7,416z M777.7,421.2
			c-0.7,0-1.3,0.2-1.9,0.7c-0.6,0.5-1,1.3-1.3,2.6c-0.4,1.6-0.6,4.3-0.6,8.1s0.2,6.4,0.5,7.8c0.4,1.4,0.8,2.4,1.4,2.8
			c0.5,0.5,1.2,0.7,1.9,0.7c0.7,0,1.3-0.2,1.9-0.7c0.6-0.5,1-1.3,1.3-2.6c0.4-1.6,0.6-4.3,0.6-8.1s-0.2-6.4-0.5-7.8
			c-0.4-1.4-0.8-2.4-1.4-2.9C779,421.4,778.4,421.2,777.7,421.2z"/>
		<path class="st2" d="M792.6,448.6v-32.4h5.9v17.2l6.9-8.3h7.2l-7.6,8.6l8.1,14.9h-6.3l-5.6-10.5l-2.7,3v7.5H792.6z"/>
	</g>
	<g>
		<path class="st2" d="M955.8,450.9v-6.5h-12.5v-5.4l13.3-20.6h4.9v20.6h3.8v5.5h-3.8v6.5H955.8z M955.8,438.9v-11.1l-7,11.1H955.8z
			"/>
		<path class="st2" d="M978,418.3c3,0,5.3,1.1,6.9,3.4c2,2.7,3,7.1,3,13.2c0,6.1-1,10.5-3,13.2c-1.7,2.2-4,3.3-6.9,3.3
			c-3,0-5.4-1.2-7.2-3.6c-1.8-2.4-2.7-6.7-2.7-13c0-6.1,1-10.5,3-13.2C972.7,419.5,975,418.3,978,418.3z M978,423.5
			c-0.7,0-1.3,0.2-1.9,0.7c-0.6,0.5-1,1.3-1.3,2.6c-0.4,1.6-0.6,4.3-0.6,8.1s0.2,6.4,0.5,7.8c0.4,1.4,0.8,2.4,1.4,2.8
			c0.5,0.5,1.2,0.7,1.9,0.7s1.3-0.2,1.9-0.7c0.6-0.5,1-1.3,1.3-2.6c0.4-1.6,0.6-4.3,0.6-8.1s-0.2-6.4-0.5-7.8
			c-0.4-1.4-0.8-2.4-1.4-2.9C979.3,423.7,978.7,423.5,978,423.5z"/>
		<path class="st2" d="M1001.7,418.3c3,0,5.3,1.1,6.9,3.4c2,2.7,3,7.1,3,13.2c0,6.1-1,10.5-3,13.2c-1.7,2.2-4,3.3-6.9,3.3
			c-3,0-5.4-1.2-7.2-3.6c-1.8-2.4-2.7-6.7-2.7-13c0-6.1,1-10.5,3-13.2C996.5,419.5,998.8,418.3,1001.7,418.3z M1001.7,423.5
			c-0.7,0-1.3,0.2-1.9,0.7c-0.6,0.5-1,1.3-1.3,2.6c-0.4,1.6-0.6,4.3-0.6,8.1s0.2,6.4,0.5,7.8c0.4,1.4,0.8,2.4,1.4,2.8
			c0.5,0.5,1.2,0.7,1.9,0.7s1.3-0.2,1.9-0.7c0.6-0.5,1-1.3,1.3-2.6c0.4-1.6,0.6-4.3,0.6-8.1s-0.2-6.4-0.5-7.8
			c-0.4-1.4-0.8-2.4-1.4-2.9C1003.1,423.7,1002.5,423.5,1001.7,423.5z"/>
		<path class="st2" d="M1016.6,450.9v-32.4h5.9v17.2l6.9-8.3h7.2l-7.6,8.6l8.1,14.9h-6.3l-5.6-10.5l-2.7,3v7.5H1016.6z"/>
	</g>
	<g>
		<path class="st2" d="M1162.6,438.8l5.8-0.6c0.2,1.4,0.7,2.5,1.5,3.3c0.8,0.8,1.8,1.2,2.8,1.2c1.2,0,2.3-0.5,3.1-1.6
			c0.8-1.1,1.3-2.6,1.3-4.8c0-2-0.4-3.5-1.3-4.5s-1.9-1.5-3.3-1.5c-1.7,0-3.2,0.8-4.5,2.4l-4.8-0.7l3-16.9h15.5v5.8h-11l-0.9,5.5
			c1.3-0.7,2.6-1,4-1c2.6,0,4.8,1,6.6,3c1.8,2,2.7,4.6,2.7,7.8c0,2.7-0.7,5-2.2,7.1c-2,2.9-4.7,4.3-8.3,4.3c-2.8,0-5.1-0.8-6.9-2.4
			C1164,443.6,1162.9,441.5,1162.6,438.8z"/>
		<path class="st2" d="M1196.1,414.5c3,0,5.3,1.1,6.9,3.4c2,2.7,3,7.1,3,13.2c0,6.1-1,10.5-3,13.2c-1.7,2.2-4,3.3-6.9,3.3
			c-3,0-5.4-1.2-7.2-3.6c-1.8-2.4-2.7-6.7-2.7-13c0-6.1,1-10.5,3-13.2C1190.8,415.7,1193.2,414.5,1196.1,414.5z M1196.1,419.7
			c-0.7,0-1.3,0.2-1.9,0.7c-0.6,0.5-1,1.3-1.3,2.6c-0.4,1.6-0.6,4.3-0.6,8.1s0.2,6.4,0.5,7.8c0.4,1.4,0.8,2.4,1.4,2.8
			c0.5,0.5,1.2,0.7,1.9,0.7s1.3-0.2,1.9-0.7c0.6-0.5,1-1.3,1.3-2.6c0.4-1.6,0.6-4.3,0.6-8.1s-0.2-6.4-0.5-7.8
			c-0.4-1.4-0.8-2.4-1.4-2.9C1197.5,419.9,1196.8,419.7,1196.1,419.7z"/>
		<path class="st2" d="M1219.9,414.5c3,0,5.3,1.1,6.9,3.4c2,2.7,3,7.1,3,13.2c0,6.1-1,10.5-3,13.2c-1.7,2.2-4,3.3-6.9,3.3
			c-3,0-5.4-1.2-7.2-3.6c-1.8-2.4-2.7-6.7-2.7-13c0-6.1,1-10.5,3-13.2C1214.6,415.7,1216.9,414.5,1219.9,414.5z M1219.9,419.7
			c-0.7,0-1.3,0.2-1.9,0.7c-0.6,0.5-1,1.3-1.3,2.6c-0.4,1.6-0.6,4.3-0.6,8.1s0.2,6.4,0.5,7.8c0.4,1.4,0.8,2.4,1.4,2.8
			c0.5,0.5,1.2,0.7,1.9,0.7s1.3-0.2,1.9-0.7c0.6-0.5,1-1.3,1.3-2.6c0.4-1.6,0.6-4.3,0.6-8.1s-0.2-6.4-0.5-7.8
			c-0.4-1.4-0.8-2.4-1.4-2.9C1221.2,419.9,1220.6,419.7,1219.9,419.7z"/>
		<path class="st2" d="M1234.7,447.1v-32.4h5.9v17.2l6.9-8.3h7.2l-7.6,8.6l8.1,14.9h-6.3l-5.6-10.5l-2.7,3v7.5H1234.7z"/>
	</g>
	<g>
		<path class="st2" d="M1394.6,424.1l-5.7,0.7c-0.1-1.2-0.5-2.2-1.1-2.7c-0.6-0.6-1.3-0.9-2.3-0.9c-1.2,0-2.3,0.6-3.1,1.8
			c-0.9,1.2-1.4,3.6-1.6,7.4c1.5-1.8,3.3-2.7,5.4-2.7c2.4,0,4.5,1,6.3,3s2.6,4.5,2.6,7.6c0,3.3-0.9,6-2.8,8c-1.8,2-4.2,3-7.1,3
			c-3.1,0-5.6-1.3-7.6-3.8c-2-2.5-3-6.7-3-12.5c0-5.9,1-10.2,3.1-12.8c2.1-2.6,4.8-3.9,8.1-3.9c2.3,0,4.2,0.7,5.8,2.1
			C1393.2,419.5,1394.2,421.5,1394.6,424.1z M1381.3,437.6c0,2,0.4,3.6,1.3,4.7c0.9,1.1,1.9,1.6,3,1.6c1.1,0,2-0.4,2.7-1.3
			s1.1-2.4,1.1-4.4c0-2.1-0.4-3.7-1.2-4.6s-1.8-1.5-2.9-1.5c-1.1,0-2.1,0.5-2.9,1.4C1381.7,434.4,1381.3,435.8,1381.3,437.6z"/>
		<path class="st2" d="M1408.4,416c3,0,5.3,1.1,6.9,3.4c2,2.7,3,7.1,3,13.2c0,6.1-1,10.5-3,13.2c-1.7,2.2-4,3.3-6.9,3.3
			c-3,0-5.4-1.2-7.2-3.6c-1.8-2.4-2.7-6.7-2.7-13c0-6.1,1-10.5,3-13.2C1403.1,417.1,1405.4,416,1408.4,416z M1408.4,421.2
			c-0.7,0-1.3,0.2-1.9,0.7c-0.6,0.5-1,1.3-1.3,2.6c-0.4,1.6-0.6,4.3-0.6,8.1s0.2,6.4,0.5,7.8c0.4,1.4,0.8,2.4,1.4,2.8
			c0.5,0.5,1.2,0.7,1.9,0.7s1.3-0.2,1.9-0.7c0.6-0.5,1-1.3,1.3-2.6c0.4-1.6,0.6-4.3,0.6-8.1s-0.2-6.4-0.5-7.8
			c-0.4-1.4-0.8-2.4-1.4-2.9C1409.7,421.4,1409.1,421.2,1408.4,421.2z"/>
		<path class="st2" d="M1432.2,416c3,0,5.3,1.1,6.9,3.4c2,2.7,3,7.1,3,13.2c0,6.1-1,10.5-3,13.2c-1.7,2.2-4,3.3-6.9,3.3
			c-3,0-5.4-1.2-7.2-3.6c-1.8-2.4-2.7-6.7-2.7-13c0-6.1,1-10.5,3-13.2C1426.9,417.1,1429.2,416,1432.2,416z M1432.2,421.2
			c-0.7,0-1.3,0.2-1.9,0.7c-0.6,0.5-1,1.3-1.3,2.6c-0.4,1.6-0.6,4.3-0.6,8.1s0.2,6.4,0.5,7.8c0.4,1.4,0.8,2.4,1.4,2.8
			c0.5,0.5,1.2,0.7,1.9,0.7s1.3-0.2,1.9-0.7c0.6-0.5,1-1.3,1.3-2.6c0.4-1.6,0.6-4.3,0.6-8.1s-0.2-6.4-0.5-7.8
			c-0.4-1.4-0.8-2.4-1.4-2.9C1433.5,421.4,1432.9,421.2,1432.2,421.2z"/>
		<path class="st2" d="M1447,448.6v-32.4h5.9v17.2l6.9-8.3h7.2l-7.6,8.6l8.1,14.9h-6.3l-5.6-10.5l-2.7,3v7.5H1447z"/>
	</g>
</g>
</svg>
